<?xml version="1.0" standalone="no"?>
<!DOCTYPE svg PUBLIC "-//W3C//DTD SVG 20010904//EN"
 "http://www.w3.org/TR/2001/REC-SVG-20010904/DTD/svg10.dtd">
<svg version="1.0" xmlns="http://www.w3.org/2000/svg"
 width="1024.000000pt" height="1024.000000pt" viewBox="0 0 1024.000000 1024.000000"
 preserveAspectRatio="xMidYMid meet">

<g transform="translate(0.000000,1024.000000) scale(0.100000,-0.100000)"
fill="#000000" stroke="none">
<path d="M7230 8999 c-268 -22 -556 -119 -765 -258 -195 -129 -381 -374 -454
-598 -48 -146 -65 -291 -55 -453 14 -209 10 -396 -8 -455 -39 -123 -101 -219
-200 -310 -58 -53 -826 -797 -1403 -1360 -198 -193 -497 -483 -665 -645 -377
-364 -524 -507 -805 -780 -819 -799 -981 -954 -1093 -1043 -101 -81 -199 -192
-239 -271 -91 -181 -102 -405 -28 -590 45 -112 75 -158 164 -246 135 -135 277
-197 472 -207 124 -7 213 7 317 47 122 47 170 89 391 335 271 303 368 409 887
965 120 130 323 348 449 485 226 245 578 621 884 945 86 91 253 269 371 395
337 359 365 389 725 770 187 198 360 382 385 409 111 119 280 213 445 247 92
19 121 20 350 14 199 -5 270 -3 350 9 303 45 540 185 721 425 114 152 206 358
250 561 22 103 29 342 15 479 -12 118 -38 261 -50 273 -3 4 -62 -61 -131 -144
-69 -84 -215 -260 -325 -393 -110 -133 -228 -276 -263 -318 -62 -77 -63 -78
-100 -71 -104 19 -97 14 -427 285 -271 222 -343 293 -403 396 -53 90 -59 120
-36 164 16 32 163 218 505 639 156 193 223 280 217 285 -1 1 -49 8 -106 14
-113 12 -199 12 -342 0z m-20 -184 c-297 -69 -527 -190 -693 -365 -173 -181
-251 -374 -256 -632 -5 -248 70 -487 225 -723 94 -143 101 -173 51 -231 -20
-23 -31 -27 -75 -26 -61 2 -100 19 -136 63 -19 22 -30 28 -39 21 -12 -10
-1572 -1575 -2604 -2612 -309 -311 -573 -580 -586 -598 -30 -40 -53 -102 -62
-163 -6 -45 -15 -56 -206 -247 l-200 -201 -35 24 c-20 14 -51 30 -70 37 -19 7
-33 15 -32 19 2 4 84 89 182 190 149 153 292 305 534 568 18 20 112 117 210
216 329 335 283 300 -138 -104 -135 -130 -385 -374 -556 -544 l-312 -308 -59
11 c-33 7 -86 10 -118 9 l-57 -4 338 333 c466 457 1173 1148 1604 1567 107
104 296 289 420 410 124 121 302 295 395 385 194 188 508 494 799 780 109 107
217 218 240 245 58 71 114 197 138 312 18 87 19 115 12 248 -13 229 -10 399 9
487 59 275 241 523 502 681 131 79 352 149 525 165 145 14 156 11 50 -13z
m-482 -1877 c-100 -117 -303 -332 -577 -613 -97 -99 -315 -324 -486 -500 -170
-176 -427 -439 -570 -585 -143 -146 -328 -334 -410 -419 -172 -175 -759 -745
-939 -911 l-50 -45 34 40 c132 159 656 715 1189 1264 1510 1553 1616 1659
1786 1781 38 27 71 50 73 50 2 0 -20 -28 -50 -62z m-3688 -3497 c0 -21 42 -88
71 -113 18 -16 15 -20 -102 -145 -66 -70 -125 -129 -129 -131 -16 -6 -70 80
-70 110 0 16 6 43 14 61 14 34 192 237 207 237 5 0 9 -8 9 -19z m-780 -542
c180 -29 308 -156 342 -339 22 -118 -20 -244 -114 -338 -83 -84 -174 -122
-294 -122 -272 0 -465 262 -384 522 45 145 174 256 323 278 29 4 54 8 57 9 3
0 34 -4 70 -10z"/>
<path d="M4655 8100 c-33 -5 -91 -11 -129 -15 -38 -4 -86 -12 -108 -18 -36
-11 -42 -18 -65 -71 -13 -32 -49 -97 -79 -144 l-54 -85 -23 54 c-13 30 -34 84
-46 122 -13 37 -23 67 -24 67 -25 -1 -427 -144 -479 -171 -35 -18 -36 -20 -27
-51 16 -59 10 -102 -30 -192 l-39 -88 -43 59 c-24 32 -60 79 -80 105 l-37 47
-71 -44 c-88 -54 -281 -193 -339 -243 l-43 -37 40 -70 c23 -38 41 -72 41 -76
0 -9 -37 -23 -128 -49 l-82 -24 -34 33 -33 32 -79 -89 c-117 -132 -175 -200
-227 -268 l-46 -62 57 -54 c79 -75 165 -135 170 -120 4 14 123 82 143 82 18 0
149 -99 149 -112 0 -14 -102 -148 -113 -148 -6 0 -53 26 -106 59 -151 92 -200
115 -225 103 -20 -10 -128 -30 -191 -35 -27 -2 -35 -12 -87 -112 -53 -101
-163 -351 -170 -384 -3 -15 176 -141 200 -141 7 0 30 10 51 22 l38 22 81 -35
c45 -19 82 -38 82 -44 0 -10 -60 -197 -66 -203 -3 -4 -79 46 -202 135 l-83 59
-47 -23 c-26 -12 -72 -32 -102 -42 l-55 -19 -22 -84 c-30 -111 -70 -309 -78
-383 l-6 -60 115 -54 c62 -29 118 -51 123 -48 5 3 47 10 93 16 47 6 99 14 117
16 l32 6 -6 -118 c-3 -65 -6 -119 -7 -120 -1 -1 -30 4 -66 11 -49 9 -85 25
-144 64 -43 29 -84 52 -90 52 -6 0 -55 -17 -108 -37 l-98 -38 0 -220 c0 -121
3 -236 6 -255 6 -35 7 -35 102 -63 111 -31 120 -32 148 -13 31 22 209 96 231
96 17 0 22 -13 36 -107 9 -59 14 -109 12 -112 -3 -2 -68 4 -145 13 l-140 18
-100 -64 c-56 -36 -100 -70 -100 -79 -1 -54 134 -482 189 -601 l27 -57 262
262 c144 144 264 265 267 268 4 4 -7 63 -24 130 -58 241 -76 425 -68 679 9
263 41 453 118 698 144 456 389 819 782 1157 402 347 931 554 1482 581 212 10
523 -25 780 -90 55 -14 101 -23 104 -21 13 13 19 118 12 201 -8 97 -16 114
-53 114 -17 0 -16 4 3 53 20 47 22 68 19 217 -1 104 -6 167 -13 172 -20 12
-223 47 -378 65 -119 13 -153 15 -157 5 -8 -26 -84 -129 -132 -182 -54 -59
-56 -63 -64 -153 l-5 -59 67 -61 c37 -34 92 -86 122 -115 l55 -53 -90 52
c-121 69 -226 140 -232 155 -2 6 3 36 12 65 11 35 19 108 22 207 l6 152 -109
-1 c-60 -1 -136 -5 -169 -9z m-150 -435 c43 -51 47 -59 41 -93 -17 -94 -13
-89 -69 -96 -29 -3 -68 -9 -88 -12 l-36 -6 -27 107 c-15 59 -25 109 -23 112 5
5 128 41 143 42 6 1 33 -24 59 -54z m-624 -177 c42 -12 48 -25 64 -124 6 -39
5 -41 -27 -51 -18 -6 -56 -20 -84 -31 l-52 -19 -61 83 c-34 46 -74 92 -89 103
-24 18 -25 20 -7 21 11 1 58 7 105 14 110 18 106 18 151 4z m-535 -320 c53
-42 54 -44 54 -95 0 -29 -4 -53 -8 -53 -5 0 -37 -18 -72 -41 -61 -39 -64 -40
-81 -22 -27 28 -119 165 -119 178 0 11 131 72 158 74 8 1 38 -18 68 -41z"/>
<path d="M4620 7199 c-640 -96 -1165 -415 -1559 -949 -342 -462 -505 -1118
-421 -1690 17 -120 38 -227 55 -286 1 -5 71 56 154 136 l151 146 -10 95 c-56
537 101 1085 431 1500 81 102 237 254 345 336 241 183 507 303 819 370 124 27
142 28 380 27 172 -1 276 -6 332 -16 l83 -15 67 71 c38 39 98 99 135 134 37
35 62 65 55 67 -260 86 -719 119 -1017 74z"/>
<path d="M4797 6583 c-34 -4 -38 -7 -34 -26 3 -12 15 -71 28 -132 12 -60 23
-111 24 -113 2 -2 67 60 146 137 l142 141 -134 -2 c-74 -1 -151 -3 -172 -5z"/>
<path d="M4485 6525 c-266 -85 -519 -235 -690 -409 -124 -126 -160 -173 -146
-190 14 -17 442 -302 448 -299 2 1 123 119 269 262 154 151 264 267 264 278 0
10 -16 98 -36 196 -41 194 -35 186 -109 162z"/>
<path d="M7770 6198 c-48 -10 -142 -21 -215 -23 -71 -3 -195 -7 -275 -10 -273
-9 -464 -81 -614 -233 l-58 -60 30 -43 c117 -172 223 -498 252 -779 20 -198 8
-465 -31 -654 -49 -235 -170 -537 -290 -722 -116 -178 -308 -385 -464 -501
-284 -211 -631 -342 -1019 -384 -313 -33 -760 48 -1040 188 l-89 45 -48 -48
c-27 -27 -49 -51 -49 -55 0 -11 192 -96 300 -132 241 -81 400 -107 695 -114
249 -6 390 7 595 57 528 130 1010 463 1352 935 137 190 223 360 303 600 121
362 150 729 86 1098 l-19 107 34 78 c40 92 41 118 9 219 -13 42 -23 79 -21 81
6 5 62 -136 95 -240 106 -335 119 -796 31 -1165 -49 -206 -138 -441 -237 -623
-179 -332 -503 -685 -834 -907 -192 -129 -453 -251 -674 -315 -570 -164 -1201
-113 -1738 140 -81 38 -109 47 -114 38 -5 -8 -144 -157 -311 -332 l-302 -319
22 -17 c44 -34 243 -166 307 -202 l63 -37 67 55 c36 29 108 92 159 140 86 80
133 116 83 63 -18 -20 -25 -50 -42 -186 -12 -91 -17 -166 -13 -171 22 -21 538
-170 549 -158 13 13 145 618 145 665 0 7 100 -4 108 -11 5 -6 -94 -300 -159
-474 -22 -56 -39 -109 -39 -117 0 -14 34 -26 115 -40 26 -4 50 -18 72 -41 32
-34 32 -34 155 -43 68 -6 179 -11 247 -13 l124 -3 29 139 c15 76 30 141 33
144 3 3 5 -21 5 -54 l0 -59 60 -33 c32 -17 81 -54 109 -81 l50 -49 281 61
c191 42 279 66 276 74 -3 6 -8 27 -11 45 l-6 33 92 43 c90 43 91 43 113 24 11
-10 32 -28 45 -40 l24 -21 167 84 c141 70 313 165 329 181 3 2 -21 57 -51 122
-31 64 -77 161 -102 214 -24 54 -47 98 -49 98 -2 0 -35 -20 -72 -45 -37 -26
-72 -42 -76 -38 -5 5 -27 56 -49 113 l-40 105 47 42 c25 23 65 56 88 72 l43
30 18 -101 c19 -101 19 -101 53 -113 32 -11 38 -19 76 -116 58 -146 58 -146
107 -154 49 -8 178 -53 192 -66 25 -24 51 -7 235 156 63 55 137 122 165 150
l50 49 -105 98 c-57 54 -99 98 -94 98 6 0 62 7 125 16 113 16 114 16 162 -7
26 -12 49 -21 51 -18 112 144 348 505 335 513 -2 1 -100 29 -218 62 l-214 61
-37 141 c-55 207 -55 217 -7 117 24 -49 54 -112 68 -140 l25 -50 200 -77 200
-77 39 77 c98 193 175 395 232 607 l24 90 -27 20 c-37 26 -173 156 -173 165 0
8 209 80 232 80 40 0 77 509 52 715 l-6 51 -72 37 c-39 20 -96 59 -126 86
l-55 49 108 51 c93 45 107 55 107 76 0 14 -23 114 -51 222 -28 109 -53 209
-56 222 -6 22 -8 23 -82 17 -42 -4 -134 -21 -205 -38 l-130 -31 -73 38 c-41
20 -72 39 -70 42 6 6 66 11 217 18 l136 7 -4 33 c-5 40 17 83 69 140 l39 42
-27 62 c-14 33 -29 60 -32 60 -3 -1 -44 -10 -91 -21z m60 -955 c38 -27 69 -50
69 -53 0 -3 -42 -25 -93 -49 l-94 -43 -47 32 -47 32 29 32 c75 84 88 96 101
96 7 0 45 -21 82 -47z m20 -1077 c0 -2 -37 -2 -82 1 -94 6 -81 -3 -190 144
l-57 78 164 -110 c91 -60 165 -111 165 -113z m-905 -1235 c60 -88 107 -163
104 -165 -2 -2 -30 7 -61 20 l-57 24 -48 -30 -48 -30 -18 22 c-10 13 -45 59
-78 102 l-59 80 32 35 c62 68 110 111 117 107 4 -3 56 -77 116 -165z m-1186
-733 c19 -105 39 -215 46 -245 13 -54 8 -66 -16 -36 -8 9 -54 46 -104 84 -122
91 -125 95 -136 181 -4 40 -11 88 -14 106 -7 36 -13 31 115 78 36 13 68 23 71
24 3 0 20 -86 38 -192z m-585 -59 c-9 -68 -21 -130 -27 -136 -6 -8 -35 -13
-76 -13 l-68 0 4 33 c14 125 8 113 96 182 44 36 82 63 84 61 2 -1 -4 -59 -13
-127z"/>
<path d="M3491 5711 c-75 -145 -149 -387 -176 -572 -13 -96 -21 -289 -11 -289
2 0 64 60 138 133 74 72 216 211 315 308 l181 177 -27 19 c-89 66 -381 263
-390 263 -6 0 -20 -18 -30 -39z"/>
<path d="M6355 5509 c-39 -27 -98 -66 -132 -85 -35 -20 -72 -48 -84 -62 -28
-36 -270 -292 -556 -589 -216 -224 -233 -244 -233 -278 0 -106 -96 -211 -220
-239 -43 -10 -56 -21 -140 -116 -51 -58 -123 -136 -160 -175 l-68 -70 -35
-135 c-42 -155 -157 -619 -157 -630 0 -9 133 -27 260 -36 108 -7 281 8 419 36
113 24 308 88 384 127 l56 28 -82 112 c-45 61 -144 196 -220 300 -95 130 -149
195 -174 209 -68 39 -93 126 -52 178 63 80 166 72 212 -18 12 -24 94 -140 183
-257 88 -118 193 -260 233 -316 l73 -103 45 33 c113 80 283 261 385 408 65 94
146 248 191 364 49 126 50 132 32 139 -8 3 -145 21 -303 41 -158 19 -320 40
-361 46 -41 6 -102 8 -136 4 -74 -8 -122 8 -152 51 -31 44 -37 87 -18 128 32
67 111 93 187 62 18 -8 74 -19 123 -25 134 -15 698 -91 712 -96 20 -7 28 79
27 300 -1 186 -4 225 -28 337 -28 138 -71 265 -111 334 -14 24 -27 44 -28 44
-1 0 -34 -23 -72 -51z"/>
<path d="M4435 3534 c-11 -12 -73 -80 -139 -150 -116 -125 -118 -128 -95 -139
38 -19 158 -59 163 -54 7 6 98 360 94 364 -2 1 -12 -8 -23 -21z"/>
</g>
</svg>
